<svg xmlns="http://www.w3.org/2000/svg" viewBox="0 0 786.13 388.61"><defs><style>.cls-1{fill:#fff;}</style></defs><title>Artboard 2</title><g id="Layer_3" data-name="Layer 3"><g id="logo-frame"><path class="cls-1" d="M112,199.12c-.78,5-.58,6.59,3.88,6.59H118c4.45,0,5-1.55,5.81-6.59l6.2-44.57h8.72l-6.39,46.12c-1.55,10.66-4.65,13.76-14.34,13.76h-5c-9.69,0-12-3.1-10.47-13.76L118,90.6c1.55-10.65,4.65-13.76,14.34-13.76h5c9.68,0,11.82,3.11,10.46,13.76L142,130.91h-8.72l5.42-38.75c.78-5,.58-6.59-3.87-6.59h-2.13c-4.46,0-4.85,1.55-5.62,6.59Z"/><path class="cls-1" d="M168.33,90.6C169.88,80,173,76.84,182.67,76.84h5.62c9.69,0,12,3.11,10.46,13.76l-15.5,110.07c-1.55,10.66-4.65,13.76-14.34,13.76h-5.62c-9.69,0-12-3.1-10.46-13.76Zm20.73,1.56c.78-5,.59-6.59-3.87-6.59h-2.13c-4.46,0-4.85,1.55-5.62,6.59l-15.12,107c-.77,5-.58,6.59,3.88,6.59h2.13c4.46,0,5-1.55,5.81-6.59Z"/><path class="cls-1" d="M219.42,90.6C221,80,224.08,76.84,233.76,76.84h5.62c9.69,0,12,3.11,10.47,13.76l-15.5,110.07c-1.55,10.66-4.65,13.76-14.34,13.76h-5.62c-9.69,0-12-3.1-10.47-13.76Zm20.74,1.56c.77-5,.58-6.59-3.88-6.59h-2.13c-4.45,0-4.84,1.55-5.62,6.59l-15.11,107c-.78,5-.58,6.59,3.87,6.59h2.13c4.46,0,5-1.55,5.82-6.59Z"/><path class="cls-1" d="M285.64,200.48a36.79,36.79,0,0,0-.2,13h-9.69c-.77-2.32-.19-7,.39-11.43l6.4-46.12c.77-5,.38-7-4.27-7h-6.39L263,213.46h-9.3l19-135.65h17.83c9.88,0,12,3.11,10.46,13.76l-5.62,39.92c-1.16,8.14-3.1,11.82-8.33,13,4.85,1.35,5.82,5.23,4.65,13.37Zm-5-113.94-7.37,53.67H280c4.45,0,5-1.55,5.81-6.59l5.62-40.5c.77-5,.58-6.58-3.88-6.58Z"/><path class="cls-1" d="M324.14,77.81H342c9.89,0,12,3.11,10.47,13.76L337.31,199.7c-1.55,10.66-4.45,13.76-14.34,13.76H305.15Zm7.94,8.73-16.47,118.2h6.78c4.46,0,5-1.55,5.82-6.59l14.72-105c.78-5,.59-6.58-3.87-6.58Z"/><path class="cls-1" d="M375.62,77.81h9.3l-19,135.65h-9.3Z"/><path class="cls-1" d="M409.47,128.78c0-8.14.58-18,1-26-1,8-2.32,18.22-3.29,25.77l-11.82,84.88h-7.95l19-135.65H418l-.58,71.9c0,8.14-.58,17-1,26.35,1.35-10.07,2.52-18.6,3.49-26.16L430,77.81H438L419,213.46H408.7Z"/><path class="cls-1" d="M462.89,192.73h-12l-4.46,20.73h-8.53L467,77.81h12.6l-8.72,135.65h-9.3Zm-10.27-8.53h10.86L465.22,158c1.74-26,3.49-45.15,5.62-65.5-3.49,20.35-7.36,39.53-12.79,65.5Z"/><path class="cls-1" d="M509,77.81h17.83c9.88,0,12,3.11,10.46,13.76L522.13,199.7c-1.55,10.66-4.46,13.76-14.34,13.76H490Zm7.95,8.73-16.47,118.2h6.78c4.46,0,5-1.55,5.81-6.59l14.73-105c.77-5,.58-6.58-3.88-6.58Z"/><path class="cls-1" d="M558.3,90.6C559.85,80,563,76.84,572.64,76.84h5.62c9.69,0,12,3.11,10.47,13.76L573.22,200.67c-1.55,10.66-4.65,13.76-14.33,13.76h-5.62c-9.69,0-12-3.1-10.47-13.76ZM579,92.16c.77-5,.58-6.59-3.88-6.59H573c-4.46,0-4.84,1.55-5.62,6.59l-15.11,107c-.78,5-.58,6.59,3.87,6.59h2.13c4.46,0,5-1.55,5.82-6.59Z"/><path class="cls-1" d="M624.52,200.48a36.79,36.79,0,0,0-.2,13h-9.69c-.77-2.32-.19-7,.39-11.43l6.4-46.12c.77-5,.38-7-4.27-7h-6.39l-8.92,64.53h-9.3l19-135.65h17.83c9.88,0,12,3.11,10.46,13.76l-5.62,39.92c-1.16,8.14-3.1,11.82-8.33,13,4.85,1.35,5.82,5.23,4.65,13.37Zm-5-113.94-7.37,53.67h6.79c4.45,0,5-1.55,5.81-6.59l5.62-40.5c.77-5,.58-6.58-3.88-6.58Z"/><path class="cls-1" d="M666.5,192.73h-12L650,213.46H641.5L670.57,77.81h12.6l-8.72,135.65h-9.3Zm-10.27-8.53h10.85L668.83,158c1.74-26,3.49-45.15,5.62-65.5-3.49,20.35-7.37,39.53-12.79,65.5Z"/><path class="cls-1" d="M123.13,309.09H102.06V250.58h21.07c21.34,0,33.43,11.94,33.43,29.35C156.56,297.09,144.37,309.09,123.13,309.09Zm-.16-49.9H111.68v41.17H123c15.76,0,24-8.45,24-20.54S138.67,259.19,123,259.19Z"/><path class="cls-1" d="M183,300.31h23.84v8.78H173.41v-58.5h33.41v8.72H183v16.18l22.95.12v8H183Z"/><path class="cls-1" d="M278.65,300.31H302.5v8.78H269v-58.5h33.41v8.72H278.65v16.18l23,.12v8h-23Z"/><path class="cls-1" d="M312.77,252.93l9.4-2.76,24.17,43.88,24.19-43.84,9.21,2.72-33.3,58.83Z"/><path class="cls-1" d="M401.76,300.31h23.85v8.78H392.14v-58.5h33.41v8.72H401.76v16.18l22.95.12v8H401.76Z"/><path class="cls-1" d="M453.76,271.91v37.18h-9.67V248l48.34,43.95c-.11-1.17-.16-2.62-.16-4V250.58h9.62v60.87L453.6,267.67A37.48,37.48,0,0,1,453.76,271.91Z"/><path class="cls-1" d="M542.8,309.09h-9.55V259.35h-17l-.06-8.77h43.61v8.77h-17Z"/><path class="cls-1" d="M598.45,309.89c-20.24,0-32.81-13.56-32.81-30.07s12.63-30,32.81-30,32.95,13.5,32.95,30.09C631.4,296.33,618.72,309.89,598.45,309.89Zm0-51.53c-13.45,0-22.87,9.67-22.87,21.46s9.42,21.49,22.87,21.49,23-9.67,23-21.38C621.41,268,612,258.36,598.45,258.36Z"/><path class="cls-1" d="M664.21,258.31c-6,.06-9.81,3.19-9.77,7.93,0,4.19,2.7,6.82,8.56,8.48l6.3,1.78C679,279.18,684,284.68,684.06,293c0,9.85-8.31,16.8-19.65,16.84A27.86,27.86,0,0,1,643,300.45l7.12-5.28a20.21,20.21,0,0,0,14.38,6.3c6-.07,9.93-3.38,10-8.3.06-4.49-2.56-6.93-8.88-8.8l-5.82-1.71c-9.81-2.82-14.94-8.34-15-16.54,0-9.4,7.89-16.26,18.8-16.36,8.13,0,14.68,3,20.24,9.6l-6.91,4.88C672.72,260.13,668.69,258.32,664.21,258.31Z"/><path class="cls-1" d="M718.91,376.3H25.57a15.75,15.75,0,0,1-15.51-15.93l0-.25,41.63-332A15.74,15.74,0,0,1,67.22,12.3H760.56a15.74,15.74,0,0,1,15.5,15.94v.25l-41.63,332A15.74,15.74,0,0,1,718.91,376.3ZM14.06,360.49A11.75,11.75,0,0,0,25.57,372.3H718.91a11.74,11.74,0,0,0,11.51-11.93v-.25l41.63-332a11.73,11.73,0,0,0-11.5-11.82H67.22A11.74,11.74,0,0,0,55.71,28.24l0,.25Z"/></g></g></svg>